<svg xmlns="http://www.w3.org/2000/svg" viewBox="0 0 64 64" width="64" height="64">
  <!-- Hitchhiker's Guide Symbol - Black & White -->
  <!-- Main curved shape -->
  <path d="M12 48 C8 44, 8 36, 12 32 C16 28, 20 24, 28 20 C32 18, 40 16, 48 20 C52 22, 56 26, 58 32 C60 38, 58 44, 54 48 L50 44 C52 40, 52 36, 50 32 C48 28, 44 26, 40 24 C36 22, 32 24, 28 26 C24 28, 20 32, 18 36 C16 40, 18 44, 20 46 Z" fill="#000" stroke="none"/>
  
  <!-- Large circle -->
  <circle cx="20" cy="20" r="8" fill="none" stroke="#000" stroke-width="2"/>
  <circle cx="20" cy="20" r="3" fill="#000"/>
  
  <!-- Medium circle -->
  <circle cx="38" cy="28" r="6" fill="none" stroke="#000" stroke-width="2"/>
  <circle cx="38" cy="28" r="2" fill="#000"/>
  
  <!-- Small circle -->
  <circle cx="48" cy="44" r="4" fill="none" stroke="#000" stroke-width="2"/>
  <circle cx="48" cy="44" r="1.5" fill="#000"/>
  
  <!-- Additional small detail circle -->
  <circle cx="30" cy="48" r="3" fill="none" stroke="#000" stroke-width="1.5"/>
  <circle cx="30" cy="48" r="1" fill="#000"/>
</svg>